<svg width="20" height="21" viewBox="0 0 20 21" fill="none" xmlns="http://www.w3.org/2000/svg">
<g clip-path="url(#clip0_119_99)">
<path fill-rule="evenodd" clip-rule="evenodd" d="M5.8335 17.5487C5.8335 16.6283 6.57969 15.8821 7.50016 15.8821C8.42064 15.8821 9.16683 16.6283 9.16683 17.5487C9.16683 18.4692 8.42064 19.2154 7.50016 19.2154C6.57969 19.2154 5.8335 18.4692 5.8335 17.5487Z" fill="white"/>
<path fill-rule="evenodd" clip-rule="evenodd" d="M15 17.5487C15 16.6283 15.7462 15.8821 16.6667 15.8821C17.5871 15.8821 18.3333 16.6283 18.3333 17.5487C18.3333 18.4692 17.5871 19.2154 16.6667 19.2154C15.7462 19.2154 15 18.4692 15 17.5487Z" fill="white"/>
<path fill-rule="evenodd" clip-rule="evenodd" d="M0 0.882161C0 0.421924 0.373096 0.0488281 0.833333 0.0488281H4.16667C4.56386 0.0488281 4.90584 0.329149 4.98379 0.718614L5.68369 4.21549H19.1667C19.415 4.21549 19.6504 4.32627 19.8087 4.51762C19.9671 4.70898 20.0318 4.96098 19.9852 5.20493L18.6507 12.2028C18.5364 12.7783 18.2233 13.2953 17.7663 13.6632C17.3115 14.0293 16.743 14.2246 16.1595 14.2155H8.07387C7.49031 14.2246 6.92184 14.0293 6.46707 13.6632C6.01021 13.2954 5.6972 12.7788 5.58277 12.2035C5.58273 12.2033 5.58282 12.2038 5.58277 12.2035L4.19066 5.24816C4.18501 5.22516 4.18032 5.20177 4.17663 5.17806L3.4836 1.71549H0.833333C0.373096 1.71549 0 1.3424 0 0.882161ZM6.01727 5.88216L7.21737 11.8781C7.25547 12.07 7.35983 12.2423 7.51218 12.3649C7.66453 12.4876 7.85516 12.5527 8.0507 12.549L8.06667 12.5488H16.1667L16.1826 12.549C16.3782 12.5527 16.5688 12.4876 16.7212 12.3649C16.8728 12.2429 16.9769 12.0716 17.0154 11.8808L18.1594 5.88216H6.01727Z" fill="white"/>
</g>
<defs>
<clipPath id="clip0_119_99">
<rect width="20" height="20" fill="white" transform="translate(0 0.0488281)"/>
</clipPath>
</defs>
</svg>
