<svg width="72" height="15" viewBox="0 0 72 15" fill="none" xmlns="http://www.w3.org/2000/svg">
<g clip-path="url(#clip0_401_187)">
<path fill-rule="evenodd" clip-rule="evenodd" d="M47.4528 8.11074C47.4954 8.39074 47.5167 8.60613 47.5807 8.82151C48.0499 10.8246 49.6068 12.16 51.6329 12.3323C53.4243 12.4831 54.8319 11.7938 55.8769 10.3077C56.3888 9.5969 57.2205 9.46767 57.8817 10.0492C58.2656 10.3723 58.3082 10.8031 58.0097 11.2123C57.839 11.4277 57.6897 11.6431 57.5191 11.88C56.8367 12.8277 55.9409 13.4738 54.8319 13.8615C53.0405 14.4861 51.249 14.5723 49.4788 13.9046C47.0902 13.0215 45.6826 11.2554 45.2774 8.73536C45.0428 7.18459 45.1921 5.63382 45.8959 4.23382C46.9196 2.23074 48.5191 1.00305 50.7371 0.636897C52.2087 0.399974 53.6589 0.550743 55.0239 1.21844C56.9646 2.14459 58.1376 3.7169 58.5855 5.80613C58.7134 6.38767 58.7561 6.9692 58.7988 7.55074C58.8414 7.9169 58.6708 8.06767 58.3082 8.0892C58.1376 8.0892 57.9883 8.0892 57.8177 8.0892C54.512 8.0892 51.2063 8.0892 47.922 8.0892C47.7727 8.11074 47.666 8.11074 47.4528 8.11074ZM56.4741 5.91382C56.1968 4.03997 53.9575 2.40305 51.8888 2.53228C49.7348 2.66151 47.6021 4.31997 47.5167 5.91382C50.4812 5.91382 53.4883 5.91382 56.4741 5.91382Z" fill="#CECECE"/>
<path fill-rule="evenodd" clip-rule="evenodd" d="M30.519 8.04623C30.5403 8.24008 30.5617 8.36931 30.583 8.52008C30.9882 10.7385 32.7797 12.2678 34.9977 12.3108C36.6825 12.3324 37.9835 11.6432 38.9645 10.2647C39.4764 9.53238 40.3934 9.44623 41.0332 10.0924C41.3318 10.4155 41.3958 10.8032 41.0972 11.1908C40.9692 11.3847 40.8413 11.557 40.692 11.7078C39.9669 12.7847 38.9645 13.4739 37.7489 13.8832C35.9574 14.4862 34.1659 14.5293 32.4384 13.8401C29.9645 12.8708 28.5783 10.9539 28.2797 8.28315C28.1304 6.99084 28.2584 5.74161 28.7915 4.557C29.8366 2.317 31.5214 0.938534 33.974 0.615457C35.2749 0.44315 36.5759 0.550842 37.7702 1.04623C39.9456 1.95084 41.2038 3.65238 41.6944 5.957C41.7797 6.47392 41.8437 7.03392 41.865 7.55084C41.8863 7.98161 41.801 8.06777 41.3531 8.06777C40.5854 8.06777 39.7749 8.06777 38.9858 8.06777C36.3413 8.06777 33.6967 8.06777 31.0948 8.06777C30.9029 8.04623 30.7323 8.04623 30.519 8.04623ZM39.583 5.8493C39.3057 3.997 37.1304 2.42469 34.9977 2.46777C32.929 2.51084 30.7749 4.19084 30.6043 5.8493C33.5901 5.8493 36.5546 5.8493 39.583 5.8493Z" fill="#CECECE"/>
<path fill-rule="evenodd" clip-rule="evenodd" d="M67.628 9.03694C67.7987 9.18771 67.884 9.27386 67.9906 9.36002C69.1423 10.3508 70.2939 11.3416 71.4243 12.3323C71.4882 12.3969 71.5949 12.4831 71.6589 12.5477C72.0854 12.9785 72.128 13.6031 71.7228 14.0339C71.3389 14.4646 70.7418 14.5292 70.2939 14.1631C69.4835 13.4954 68.7157 12.8062 67.9266 12.1385C66.7963 11.1692 65.6873 10.2 64.5569 9.23079C64.4716 9.14463 64.3437 9.05848 64.1731 8.92925C64.1731 9.16617 64.1517 9.31694 64.1517 9.46771C64.1517 12.2031 64.1517 10.1569 64.1517 12.8923C64.1517 13.0216 64.1517 13.1508 64.1517 13.28C64.1091 13.8831 63.6612 14.3139 63.0641 14.2708C62.4882 14.2492 62.1043 13.8185 62.083 13.2154C62.083 13.0862 62.083 12.9569 62.083 12.8277C62.083 7.42156 62.083 6.79694 62.083 1.39079C62.083 1.21848 62.083 1.06771 62.083 0.895401C62.083 0.507708 62.1257 0.443093 62.4882 0.443093C62.9787 0.421555 63.4693 0.421555 63.9598 0.421555C65.1328 0.421555 66.3484 0.464631 67.5214 0.400016C69.5048 0.313862 71.7228 1.92925 71.9361 4.27694C72.128 6.38771 70.6991 8.39079 68.5664 8.82155C68.2892 8.88617 67.9906 8.97232 67.628 9.03694ZM64.0238 7.37848C64.1517 7.40002 64.237 7.40002 64.301 7.40002C65.2821 7.40002 66.2844 7.40002 67.2655 7.40002C67.5427 7.40002 67.8413 7.37848 68.1186 7.27079C69.0356 6.99079 69.7607 6.43079 69.9953 5.44002C70.4006 3.73848 69.1423 2.18771 67.4148 2.18771C66.3911 2.18771 65.3887 2.18771 64.3437 2.18771C64.2157 2.18771 64.1091 2.20925 63.9811 2.20925C64.0238 3.93232 64.0238 5.63386 64.0238 7.37848Z" fill="#CECECE"/>
<path fill-rule="evenodd" clip-rule="evenodd" d="M22.841 8.06771C20.8789 8.06771 18.9808 8.06771 17.0401 8.06771C17.0401 8.24001 17.0188 8.39078 17.0188 8.54155C17.0188 10.0492 17.0188 11.5354 17.0188 13.0431C17.0188 13.2369 17.0188 13.4308 16.9761 13.5816C16.8268 14.0339 16.3576 14.3139 15.9098 14.2923C15.4192 14.2492 15.014 13.8616 14.95 13.3662C14.9287 13.2369 14.95 13.1292 14.95 13C14.95 7.63694 14.9287 6.99078 14.9287 1.64925C14.9287 1.43386 14.95 1.21848 15.014 1.02463C15.1846 0.572324 15.6538 0.313863 16.1443 0.378478C16.5922 0.443093 16.9761 0.830786 17.0188 1.30463C17.0401 1.4554 17.0188 1.58463 17.0188 1.7354C17.0188 4.49232 17.0401 2.53232 17.0401 5.28925C17.0401 5.46155 17.0614 5.61232 17.0614 5.76309C17.424 5.84925 22.4571 5.84925 22.841 5.76309C22.841 5.63386 22.8624 5.50463 22.8624 5.35386C22.8624 4.14771 22.8624 2.92002 22.8624 1.71386C22.8624 1.58463 22.8624 1.47694 22.8624 1.34771C22.905 0.809247 23.3102 0.400016 23.8434 0.378478C24.3766 0.356939 24.8671 0.76617 24.9311 1.30463C24.9524 1.43386 24.9311 1.54155 24.9311 1.67079C24.9311 5.44002 24.9311 9.18771 24.9311 12.9569C24.9311 13.0862 24.9311 13.1939 24.9311 13.3231C24.8671 13.8616 24.3979 14.2923 23.8647 14.2708C23.3315 14.2492 22.905 13.8185 22.841 13.28C22.841 13.1508 22.841 13.0431 22.841 12.9139C22.841 11.4708 22.841 9.98463 22.841 8.54155C22.841 8.41232 22.841 8.26155 22.841 8.06771Z" fill="#CECECE"/>
<path fill-rule="evenodd" clip-rule="evenodd" d="M5.8649 14.3784C4.47865 14.3569 3.1777 14.0553 1.98339 13.323C1.47154 13.0215 1.00234 12.6338 0.618457 12.1815C0.426514 11.9446 0.191916 11.7076 0.106608 11.4061C-0.0213538 11.0184 -0.0426808 10.5876 0.319878 10.243C0.725092 9.85534 1.27959 9.70457 1.8341 10.0707C2.36727 10.4584 2.6232 10.9538 3.07106 11.4061C3.71087 12.0523 4.54263 12.3969 5.43836 12.5046C6.27011 12.5907 7.08054 12.5692 7.89097 12.2892C8.21087 12.16 8.55211 12.0092 8.82936 11.7938C9.3412 11.2123 9.49049 10.3938 8.87201 9.8338C8.57343 9.57534 8.18955 9.38149 7.80566 9.20919C6.86727 8.79996 5.88623 8.51996 4.90519 8.26149C4.09476 8.06765 3.32699 7.80919 2.51656 7.57226C2.21798 7.48611 1.9194 7.3138 1.64215 7.16303C0.895708 6.7538 0.469168 6.10765 0.341205 5.28919C0.106608 3.58765 0.725092 2.05842 2.19666 1.30457C4.49997 0.163033 6.8886 0.270726 9.19192 1.58457C9.61846 1.82149 10.0237 2.18765 10.3862 2.51073C10.6635 2.74765 10.8767 3.09226 10.9834 3.45842C11.09 3.91073 10.8767 4.38457 10.3222 4.5138C9.85305 4.62149 9.42651 4.47073 9.08528 4.10457C9.0213 4.03996 8.95732 3.9538 8.91466 3.88919C8.38149 3.07073 7.59239 2.61842 6.654 2.44611C5.71561 2.2738 4.77722 2.29534 3.88149 2.66149C3.56158 2.79073 3.22035 2.96303 2.96443 3.19996C2.58054 3.71688 2.43125 4.40611 2.9431 5.05226C3.34831 5.43996 3.81751 5.65534 4.32936 5.76303C5.45969 6.04303 6.61135 6.34457 7.74168 6.62457C8.4668 6.81842 9.17059 7.05534 9.83173 7.44303C10.6848 7.89534 11.3033 8.56303 11.5166 9.53226C11.7725 10.7169 11.5166 11.8369 10.5995 12.6984C9.55447 13.6461 8.36016 14.163 6.97391 14.3138C6.59002 14.3569 6.20613 14.3569 5.8649 14.3784Z" fill="#CECECE"/>
</g>
<defs>
<clipPath id="clip0_401_187">
<rect width="72" height="14" fill="white" transform="translate(0 0.399902)"/>
</clipPath>
</defs>
</svg>
