<svg width="38" height="38" viewBox="0 0 38 38" fill="none" xmlns="http://www.w3.org/2000/svg">
<g clip-path="url(#clip0_179_288)">
<path d="M4.08213 6.24922C3.51807 6.54609 3.48838 6.65742 3.48838 8.73555V10.5391H2.94658C2.04111 10.5391 1.55869 10.9324 1.55869 11.6895C1.55869 12.4539 2.02627 12.8398 2.954 12.8398H3.48838V13.916V14.9922H2.16728C1.03174 14.9922 0.816504 15.007 0.593848 15.1332C-0.207715 15.5562 -0.207715 16.7586 0.593848 17.1594C0.809082 17.2707 1.06143 17.293 2.17471 17.293H3.48838V22.5328V27.7727L3.65166 28.0621C3.93369 28.5668 4.21572 28.6484 5.68525 28.6484L6.93955 28.6559L7.25869 29.3164C8.15674 31.209 10.272 32.2406 12.3575 31.8027C13.0774 31.6543 14.0126 31.1719 14.5395 30.6895C15.0368 30.2293 15.5267 29.5094 15.7048 28.9973L15.8235 28.6484H21.1079H26.3923L26.5185 29.0047C27.1122 30.6375 28.9974 31.9141 30.838 31.9141C32.5747 31.9141 34.2446 30.8676 34.9794 29.3164L35.2911 28.6484H36.2188C37.2728 28.6484 37.5474 28.5594 37.8294 28.1363L38.0001 27.884V23.6684C38.0001 21.2414 37.9704 19.3785 37.9333 19.2746C37.8442 19.0371 31.2907 12.2758 31.0161 12.1273C30.8454 12.0457 30.3853 12.0234 28.6114 12.0234H26.422V9.4332C26.422 6.87266 26.422 6.85039 26.2513 6.59805C26.1622 6.45703 25.9692 6.28633 25.8282 6.21953C25.5833 6.09336 24.9153 6.08594 14.9923 6.08594H4.40869L4.08213 6.24922ZM24.1212 17.3672V26.3477H20.0466H15.972L15.8087 25.843C15.2224 24.0246 13.597 22.7703 11.6895 22.659C9.54463 22.5402 7.6001 23.8762 6.96924 25.9023L6.84307 26.3105L6.31611 26.3328L5.78916 26.3551V21.8203V17.293H8.79502C11.645 17.293 11.8231 17.2855 12.0903 17.1445C12.2907 17.048 12.4317 16.8996 12.5431 16.6621C12.8177 16.098 12.6692 15.5785 12.1423 15.1852C11.9419 15.0367 11.838 15.0293 8.86182 15.007L5.78916 14.9848V13.916V12.8398H9.20322C12.454 12.8398 12.6396 12.8324 12.9067 12.6914C13.1071 12.5949 13.2481 12.4465 13.3595 12.209C13.6341 11.6449 13.4856 11.1254 12.9587 10.732C12.7583 10.5836 12.6544 10.5762 9.27002 10.5539L5.78916 10.5316V9.46289V8.38672H14.9552H24.1212V17.3672ZM31.4985 15.8605C32.3149 16.7141 33.2501 17.6789 33.5767 18.0129L34.1704 18.6289H30.2962H26.422V16.4766V14.3242H28.2181H30.0142L31.4985 15.8605ZM35.7735 23.6387V26.3477H35.5583C35.3728 26.3477 35.3431 26.318 35.2985 26.0582C35.2763 25.9023 35.113 25.4941 34.9423 25.1527C33.7845 22.8297 30.8306 21.9613 28.5001 23.2527C27.8767 23.5941 27.0306 24.4922 26.6966 25.1602L26.422 25.7168V23.3195V20.9297H31.0978H35.7735V23.6387ZM12.3353 25.1453C12.7806 25.3383 13.3224 25.8801 13.5302 26.3328C13.7677 26.8449 13.7603 27.7355 13.5153 28.2402C13.2778 28.7152 12.8251 29.1605 12.3575 29.3906C11.8157 29.6504 11.0216 29.6504 10.4649 29.3832C9.42588 28.8859 8.85439 27.7281 9.15869 26.7039C9.38135 25.9246 9.93799 25.3309 10.6876 25.0563C11.1255 24.9004 11.8751 24.9375 12.3353 25.1453ZM31.8177 25.1898C33.5989 26.0953 33.5692 28.5223 31.7657 29.3832C31.4317 29.5391 31.2536 29.5762 30.8009 29.5688C30.1329 29.5613 29.6653 29.3684 29.1978 28.9082C28.7153 28.4258 28.5372 27.9805 28.5372 27.268C28.5372 26.7484 28.5669 26.6148 28.7599 26.2363C29.3462 25.1008 30.7192 24.6258 31.8177 25.1898Z" fill="black"/>
</g>
<defs>
<clipPath id="clip0_179_288">
<rect width="38" height="38" fill="white"/>
</clipPath>
</defs>
</svg>
