<svg width="33" height="33" viewBox="0 0 33 33" fill="none" xmlns="http://www.w3.org/2000/svg">
<path d="M15.952 0.10957C15.8489 0.16758 15.5847 0.373829 15.372 0.573635C12.5102 3.2291 9.10712 4.55684 4.70497 4.7373C3.48036 4.78887 3.39013 4.8082 3.11942 5.04024C2.66181 5.44629 2.68114 5.31094 2.64247 8.63672C2.58446 13.3805 2.68114 15.4945 3.06786 17.918C3.9122 23.2031 6.26474 27.1992 10.1835 29.9836C11.5241 30.9375 13.2063 31.8398 14.9852 32.5553C15.9327 32.9355 16.0552 32.9678 16.4999 32.9678C16.9382 32.9678 17.0671 32.9355 17.9179 32.5875C19.0393 32.1363 20.2253 31.5756 21.0309 31.1244C26.0647 28.2627 28.9651 23.9572 29.9319 17.9115C30.3186 15.4945 30.4153 13.374 30.3573 8.63672C30.3186 5.31094 30.338 5.44629 29.8804 5.04024C29.6097 4.8082 29.5194 4.78887 28.2948 4.7373C23.9056 4.56328 20.4767 3.22266 17.6536 0.599415C17.428 0.386719 17.1509 0.161133 17.0349 0.103127C16.7706 -0.0257797 16.2034 -0.0257797 15.952 0.10957ZM17.1251 3.29355C19.8966 5.51719 23.3835 6.8127 27.27 7.05762L27.9532 7.10274L27.9983 9.69375C28.0757 14.257 27.863 16.8545 27.1991 19.4842C26.213 23.4223 24.0602 26.3871 20.612 28.5914C19.8579 29.0748 17.905 30.048 17.0671 30.3639L16.4999 30.5701L15.9391 30.3639C14.953 29.9965 12.9614 28.9781 12.0526 28.3723C8.80419 26.2066 6.76102 23.3063 5.80067 19.4842C5.13681 16.8545 4.92411 14.257 5.00145 9.69375L5.04657 7.10274L5.72977 7.05762C7.95985 6.91582 10.3962 6.34219 12.2073 5.53008C13.4577 4.96934 15.069 3.97031 15.9843 3.19687C16.2163 3.00352 16.4354 2.84238 16.4806 2.84238C16.5257 2.83594 16.8157 3.04219 17.1251 3.29355Z" fill="black"/>
<path d="M20.8182 12.2204C20.6764 12.2784 19.5356 13.3741 17.7438 15.1659L14.8885 18.0147L13.5866 16.7127C12.1622 15.3012 12.1364 15.2819 11.4919 15.3592C10.8215 15.4301 10.3833 16.1262 10.5702 16.8288C10.6346 17.0737 10.8667 17.3379 12.3942 18.8784C13.5286 20.0192 14.2376 20.683 14.4051 20.7604C14.721 20.9086 15.0755 20.9151 15.3913 20.7862C15.5524 20.7153 16.661 19.6518 18.904 17.4153C22.494 13.8317 22.552 13.7608 22.4682 13.1678C22.3587 12.375 21.5401 11.911 20.8182 12.2204Z" fill="black"/>
</svg>
