<svg width="34" height="34" viewBox="0 0 34 34" fill="none" xmlns="http://www.w3.org/2000/svg">
<g clip-path="url(#clip0_179_291)">
<path d="M2.01211 0.132812C1.12227 0.451561 0.438281 1.14219 0.126172 2.04531C0.00664063 2.40391 0 2.80898 0 17C0 31.191 0.00664063 31.5961 0.126172 31.9547C0.438281 32.8711 1.12891 33.5617 2.03867 33.8738C2.40391 33.9934 2.68281 34 12.9492 34C23.2156 34 23.4945 33.9934 23.8598 33.8738C24.7629 33.5617 25.427 32.8977 25.7855 31.9547C25.925 31.5828 25.925 31.4832 25.9516 26.8613L25.9715 22.1465L29.7102 18.3945C33.5484 14.543 33.6813 14.3902 33.9004 13.6598C34.0465 13.1684 34.0266 12.3316 33.8672 11.8469C33.5684 10.9902 32.8246 10.2465 31.9813 9.96094C31.1645 9.68867 30.1551 9.80156 29.4246 10.2398C29.2918 10.3195 28.4617 11.1031 27.5719 11.9797L25.9648 13.5734V9.76172C25.9648 7.66328 25.9316 5.71758 25.8984 5.44531C25.852 5.11992 25.7523 4.78125 25.593 4.44922C25.3805 3.99101 25.2277 3.81836 23.6539 2.25117C21.8941 0.491405 21.675 0.32539 20.9246 0.092968C20.6723 0.0199203 19.1184 0 11.4883 0.00664139C2.7625 0.00664139 2.34414 0.013279 2.01211 0.132812ZM17.9297 4.66172C17.9297 7.30469 17.9297 7.33125 18.0758 7.54375C18.3746 7.97539 18.3082 7.96875 21.2434 7.96875H23.9062V11.8004V15.6387L21.6219 17.9297L19.3375 20.2207L18.5938 22.4719C18.0625 24.059 17.85 24.8027 17.85 25.0152C17.8633 25.5664 18.2617 25.9648 18.8129 25.9781C19.1715 25.9848 23.468 24.5703 23.7402 24.3578L23.9129 24.225L23.893 27.7312C23.873 31.1246 23.8664 31.2508 23.7402 31.4766C23.6605 31.6027 23.5012 31.7621 23.375 31.8418C23.1426 31.9746 23.0828 31.9746 12.9492 31.9746C2.87539 31.9746 2.75586 31.9746 2.53672 31.8418C2.41719 31.7687 2.25781 31.616 2.18477 31.5031C2.05859 31.2973 2.05859 31.0117 2.05859 16.9934C2.05859 3.1875 2.06523 2.68281 2.18477 2.50352C2.3375 2.27109 2.55 2.11836 2.81563 2.05195C2.92852 2.02539 6.375 2.00547 10.4789 1.99883L17.9297 1.99219V4.66172ZM22.1598 3.73867C23.3617 4.93398 23.7801 5.39219 23.8066 5.54492C23.8332 5.65117 23.8664 5.79726 23.8797 5.85703C23.9129 5.96992 23.7867 5.97656 21.9539 5.97656H19.9883V3.99101V2.00547L20.2738 2.06523C20.5195 2.125 20.732 2.31094 22.1598 3.73867ZM31.523 12.0195C31.7953 12.1855 31.9414 12.4711 31.9414 12.8363C31.9414 13.1816 31.7754 13.434 31.1313 14.0582L30.7129 14.4766L30.0289 13.7926L29.3516 13.1152L29.8961 12.5773C30.2016 12.2785 30.507 12.0062 30.5801 11.9664C30.7992 11.8469 31.2906 11.8734 31.523 12.0195ZM26.8613 18.3281L24.5039 20.6855L23.8266 20.0016L23.1426 19.3242L25.5 16.9668L27.8574 14.6094L28.5348 15.2867L29.2188 15.9707L26.8613 18.3281ZM22.7973 22.3922C22.5914 22.6047 22.4055 22.691 21.5555 22.9766C21.0109 23.1559 20.5527 23.2953 20.5395 23.2887C20.5328 23.2754 20.6723 22.8238 20.8516 22.2793C21.1305 21.4559 21.2234 21.2434 21.4293 21.0375L21.675 20.7852L22.359 21.4625L23.043 22.1398L22.7973 22.3922Z" fill="black"/>
<path d="M4.44256 10.0672C3.81834 10.459 3.82498 11.475 4.45584 11.8469C4.61522 11.9398 5.37225 11.9531 11.9531 11.9531C19.0719 11.9531 19.2844 11.9465 19.4836 11.827C19.7758 11.641 19.9351 11.3355 19.9351 10.957C19.9351 10.5785 19.7758 10.273 19.4836 10.0871C19.2777 9.96758 19.0719 9.96094 11.9465 9.96094C5.36561 9.96758 4.59529 9.97422 4.44256 10.0672Z" fill="black"/>
<path d="M4.44256 14.0516C3.81834 14.4434 3.82498 15.4594 4.45584 15.8312C4.61522 15.9242 5.20623 15.9375 9.96092 15.9375C14.9148 15.9375 15.3 15.9309 15.4859 15.818C16.1101 15.4527 16.1101 14.4301 15.4859 14.0582C15.3 13.952 14.9148 13.9453 9.94764 13.9453C5.19295 13.952 4.59529 13.9586 4.44256 14.0516Z" fill="black"/>
<path d="M4.44256 18.0359C3.81834 18.4277 3.82498 19.4437 4.45584 19.8156C4.61522 19.9086 5.20623 19.9219 9.96092 19.9219C14.9148 19.9219 15.3 19.9152 15.4859 19.8023C16.1101 19.4371 16.1101 18.4145 15.4859 18.0426C15.3 17.9363 14.9148 17.9297 9.94764 17.9297C5.19295 17.9363 4.59529 17.943 4.44256 18.0359Z" fill="black"/>
<path d="M4.44256 22.0203C3.81834 22.4121 3.82498 23.4281 4.45584 23.8C4.61522 23.893 5.20623 23.9062 9.96092 23.9062C14.9148 23.9062 15.3 23.8996 15.4859 23.7867C16.1101 23.4215 16.1101 22.3988 15.4859 22.027C15.3 21.9207 14.9148 21.9141 9.94764 21.9141C5.19295 21.9207 4.59529 21.9273 4.44256 22.0203Z" fill="black"/>
<path d="M12.4113 28.1297C11.7871 28.5215 11.7937 29.5375 12.4246 29.9094C12.584 30.0023 13.009 30.0156 15.9375 30.0156C19.1183 30.0156 19.2844 30.009 19.4836 29.8895C20.0945 29.5109 20.0945 28.5281 19.4836 28.1496C19.2844 28.0301 19.1183 28.0234 15.9308 28.0234C12.989 28.0234 12.564 28.0367 12.4113 28.1297Z" fill="black"/>
</g>
<defs>
<clipPath id="clip0_179_291">
<rect width="34" height="34" fill="white"/>
</clipPath>
</defs>
</svg>
