<svg width="33" height="33" viewBox="0 0 33 33" fill="none" xmlns="http://www.w3.org/2000/svg">
<g clip-path="url(#clip0_179_280)">
<path d="M8.28874 3.57715C3.97038 5.53652 0.380344 7.19942 0.309446 7.26387C-0.0128199 7.54746 7.07304e-05 6.94805 7.07304e-05 20.0256C7.07304e-05 31.5434 0.00651605 32.2717 0.116086 32.4844C0.174094 32.6068 0.322336 32.7744 0.444797 32.8518L0.663938 33H16.5001H32.3362L32.5553 32.8518C32.6778 32.7744 32.826 32.6068 32.8841 32.4844C32.9936 32.2717 33.0001 31.5434 33.0001 20.0256C33.0001 6.7998 33.0194 7.52168 32.6585 7.24453C32.5747 7.17363 28.9589 5.51719 24.6405 3.55781C17.6667 0.399609 16.7385 0 16.4614 0C16.1842 0 15.2046 0.431835 8.28874 3.57715ZM23.751 5.36895C27.5473 7.0834 30.7249 8.52715 30.828 8.57227L31.002 8.65606V19.8645V31.0664H29.2296H27.4571V21.7658C27.4571 13.0453 27.4507 12.4588 27.3411 12.2461C27.2831 12.1236 27.1348 11.9561 27.0124 11.8787L26.7932 11.7305H16.4678H6.14245L5.92331 11.8787C5.80085 11.9561 5.65261 12.1236 5.5946 12.2461C5.48503 12.4588 5.47859 13.0453 5.47859 21.7658V31.0664H3.73835H1.99812L2.01101 19.8516L2.03034 8.63672L9.24909 5.35605C16.2036 2.19141 16.4743 2.07539 16.6612 2.15918C16.7708 2.2043 19.9612 3.64805 23.751 5.36895ZM25.4591 18.498V23.332H21.9206H18.3885L18.1694 23.4803C17.7118 23.7832 17.7247 23.6736 17.7247 27.5666V31.0664H16.4678H15.211V23.6994C15.211 15.4881 15.2432 16.0617 14.7663 15.7459L14.5471 15.5977H11.0151H7.47663V14.6309V13.6641H16.4678H25.4591V18.498ZM9.34577 18.1242C9.34577 18.8203 9.4489 19.091 9.7905 19.3166C10.261 19.6324 10.9764 19.452 11.2278 18.9492C11.3116 18.7816 11.3438 18.5689 11.3438 18.1242V17.5312H12.2784H13.213V20.4316V23.332H10.3448H7.47663V20.4316V17.5312H8.4112H9.34577V18.1242ZM9.34577 25.8586C9.34577 26.5547 9.4489 26.8254 9.7905 27.051C10.0934 27.2572 10.5962 27.2572 10.8991 27.051C11.2407 26.8254 11.3438 26.5547 11.3438 25.8586V25.2656H12.2784H13.213V28.166V31.0664H10.3448H7.47663V28.166V25.2656H8.4112H9.34577V25.8586ZM21.5919 25.8586C21.5919 26.3033 21.6241 26.516 21.7079 26.6836C22.0559 27.3797 23.1259 27.3797 23.4739 26.6836C23.5577 26.516 23.5899 26.3033 23.5899 25.8586V25.2656H24.5245H25.4591V28.166V31.0664H22.5909H19.7227V28.166V25.2656H20.6573H21.5919V25.8586Z" fill="black"/>
<path d="M13.0132 6.72246C12.4331 7.10918 12.4331 7.97285 13.0132 8.35957L13.2323 8.50781H16.4679H19.7034L19.9226 8.35957C20.5026 7.97285 20.5026 7.10918 19.9226 6.72246L19.7034 6.57422H16.4679H13.2323L13.0132 6.72246Z" fill="black"/>
</g>
<defs>
<clipPath id="clip0_179_280">
<rect width="33" height="33" fill="white"/>
</clipPath>
</defs>
</svg>
