<svg width="21" height="20" viewBox="0 0 21 20" fill="none" xmlns="http://www.w3.org/2000/svg">
<path d="M13.0838 6.78232L8.79377 11.0567L7.14377 9.41656C7.05413 9.3125 6.94381 9.22799 6.81974 9.16832C6.69568 9.10865 6.56055 9.07513 6.42283 9.06984C6.28511 9.06455 6.14778 9.08762 6.01945 9.13759C5.89113 9.18757 5.77458 9.26337 5.67712 9.36025C5.57967 9.45712 5.50341 9.57298 5.45314 9.70054C5.40286 9.8281 5.37966 9.96462 5.38498 10.1015C5.3903 10.2384 5.42403 10.3727 5.48405 10.4961C5.54407 10.6194 5.62909 10.7291 5.73377 10.8182L8.08377 13.1641C8.17721 13.2563 8.28803 13.3292 8.40987 13.3786C8.5317 13.4281 8.66217 13.4532 8.79377 13.4524C9.05611 13.4513 9.30751 13.3478 9.49377 13.1641L14.4938 8.19388C14.5875 8.10147 14.6619 7.99153 14.7127 7.87039C14.7634 7.74926 14.7896 7.61933 14.7896 7.4881C14.7896 7.35687 14.7634 7.22695 14.7127 7.10581C14.6619 6.98468 14.5875 6.87473 14.4938 6.78232C14.3064 6.59718 14.053 6.49326 13.7888 6.49326C13.5246 6.49326 13.2711 6.59718 13.0838 6.78232ZM10.3638 0.0327148C8.38596 0.0327148 6.45256 0.615716 4.80807 1.70799C3.16358 2.80027 1.88186 4.35277 1.12498 6.16916C0.368102 7.98555 0.170069 9.98426 0.555921 11.9125C0.941773 13.8408 1.89418 15.612 3.29271 17.0022C4.69123 18.3924 6.47306 19.3392 8.41287 19.7227C10.3527 20.1063 12.3633 19.9094 14.1906 19.1571C16.0179 18.4047 17.5797 17.1306 18.6785 15.4959C19.7773 13.8612 20.3638 11.9393 20.3638 9.97323C20.3638 8.66782 20.1051 7.3752 19.6026 6.16916C19.1 4.96312 18.3634 3.86729 17.4348 2.94422C16.5063 2.02116 15.4039 1.28895 14.1906 0.789392C12.9774 0.289834 11.677 0.0327148 10.3638 0.0327148ZM10.3638 17.9256C8.78152 17.9256 7.23481 17.4592 5.91921 16.5854C4.60362 15.7116 3.57824 14.4696 2.97274 13.0165C2.36724 11.5634 2.20881 9.96441 2.51749 8.42179C2.82617 6.87918 3.5881 5.46219 4.70692 4.35003C5.82574 3.23786 7.2512 2.48047 8.80305 2.17362C10.3549 1.86678 11.9634 2.02426 13.4252 2.62616C14.8871 3.22806 16.1365 4.24734 17.0155 5.55511C17.8946 6.86287 18.3638 8.40039 18.3638 9.97323C18.3638 12.0823 17.5209 14.1051 16.0206 15.5964C14.5203 17.0878 12.4855 17.9256 10.3638 17.9256Z" fill="#FFC700"/>
</svg>
