<svg width="126" height="34" viewBox="0 0 126 34" fill="none" xmlns="http://www.w3.org/2000/svg">
<g clip-path="url(#clip0_401_196)">
<path fill-rule="evenodd" clip-rule="evenodd" d="M13.534 4.02319C16.0785 4.02319 18.287 4.90533 20.1496 6.66627C22.0122 8.43054 22.9436 10.5189 22.9436 12.9248C22.9436 15.3273 22.0122 17.4157 20.1496 19.1799C19.4012 19.8883 18.603 20.453 17.7482 20.874L23.7784 33.7486H16.5707L11.2356 21.8297H6.32628V33.7486H0V4.02319C4.51354 4.02319 9.02376 4.02319 13.534 4.02319ZM6.32628 9.95758V15.9387H13.534C14.2524 15.9387 14.9376 15.6213 15.5895 14.9798C16.2414 14.3382 16.5674 13.6565 16.5674 12.9248C16.5674 12.193 16.2481 11.518 15.6128 10.8932C14.9742 10.2683 14.279 9.95758 13.5306 9.95758H6.32628Z" fill="white"/>
<path d="M26.6654 0.751953H125.468H126V1.28992V33.214V33.752H125.468H26.6654H26.1299V33.214V1.28992V0.751953H26.6654ZM124.926 1.82789H27.2042V32.6727H124.926V1.82789Z" fill="white"/>
<path fill-rule="evenodd" clip-rule="evenodd" d="M30.4272 11.4914H41.7726V14.9598H34.4685V18.7557H41.1107V21.9936H34.4685V26.3307H41.7726V29.8025H30.4272V11.4914ZM62.052 15.5078L61.9722 15.4778L61.8923 15.4444L61.8158 15.4109L61.736 15.3809L61.6562 15.3508L61.5763 15.3174L61.4965 15.2873L61.4167 15.2572L61.3402 15.2305L61.2604 15.2004L61.1805 15.177L61.104 15.147L61.0242 15.1202L60.9477 15.0935L60.8679 15.0668L60.7847 15.0434L60.7049 15.0167L60.6251 14.9966L60.5452 14.9732L60.4621 14.9498L60.3823 14.9298L60.3024 14.9064L60.2193 14.8863L60.1428 14.8663L60.0596 14.8496L59.9798 14.8295L59.9 14.8095L59.8168 14.7961L59.7403 14.7794L59.6572 14.7627L59.5773 14.7493L59.4942 14.736L59.411 14.7193L59.3279 14.7059L59.2481 14.6925L59.1649 14.6792L59.0818 14.6625L59.0019 14.6524L58.9188 14.6391L58.8323 14.629L58.7525 14.619L58.6726 14.609L58.5895 14.599L58.5063 14.5889L58.4232 14.5789L58.34 14.5689L58.2535 14.5656L58.1704 14.5555L58.0939 14.5489L58.0041 14.5422L57.9209 14.5355L57.8378 14.5321L57.7513 14.5255L57.6682 14.5221L57.585 14.5188L57.4985 14.5121L57.412 14.5088H57.3289L57.2457 14.5054L57.1626 14.5021L57.0761 14.4987H56.993H56.9065H56.7235L56.5439 14.5054L56.3676 14.5154L56.1947 14.5255L56.025 14.5422L55.8554 14.5622L55.6891 14.5856L55.5261 14.6123L55.3665 14.6391L55.2102 14.6725L55.0538 14.7092L54.9008 14.746L54.7511 14.7928L54.5981 14.8396L54.4518 14.8897L54.3121 14.9431L54.1724 14.9999L54.0327 15.0601L53.8997 15.1202L53.7633 15.1871L53.6336 15.2539L53.5072 15.3307L53.3808 15.4076L53.2577 15.4878L53.138 15.568L53.0216 15.6582L52.9051 15.7484L52.7921 15.8453L52.6856 15.9422L52.5792 16.0425L52.4728 16.1494L52.3696 16.2563L52.2798 16.3599L52.1867 16.4668L52.1002 16.5738L52.0138 16.684L51.9339 16.7976L51.8574 16.9112L51.7809 17.0282L51.7078 17.1451L51.6379 17.2654L51.568 17.3857L51.5049 17.516L51.445 17.6397L51.3851 17.7667L51.3286 17.9003L51.2754 18.034L51.2221 18.171L51.1789 18.308L51.1357 18.4483L51.0924 18.592L51.0558 18.7357L51.0226 18.8793L50.9926 19.0297L50.9627 19.1801L50.9394 19.3338L50.9161 19.4875L50.8962 19.6479L50.8762 19.8049L50.8662 19.9653L50.8529 20.1324L50.8463 20.2961L50.8396 20.4665V20.6369V20.8074L50.843 20.9744L50.8529 21.1415L50.8662 21.3052L50.8762 21.4656L50.8962 21.6227L50.9161 21.7764L50.9361 21.9301L50.9594 22.0804L50.986 22.2308L51.0126 22.3778L51.0459 22.5182L51.0824 22.6652L51.119 22.8055L51.1656 22.9459L51.2088 23.0795L51.2587 23.2132L51.3119 23.3468L51.3618 23.4772L51.4217 23.6075L51.4816 23.7311L51.5414 23.8547L51.6046 23.9717L51.6712 24.092L51.7377 24.2056L51.8109 24.3192L51.8907 24.4328L51.9672 24.5464L52.0503 24.65L52.1335 24.7569L52.2233 24.8605L52.3131 24.9641L52.4129 25.071L52.516 25.1746L52.6191 25.2715L52.7255 25.3684L52.8353 25.462L52.9451 25.5522L53.0615 25.6391L53.1746 25.7193L53.2976 25.8028L53.4174 25.8763L53.5438 25.9498L53.6668 26.02L53.7966 26.0835L53.9263 26.147L54.0626 26.2071L54.199 26.2606L54.3354 26.3174L54.4751 26.3708L54.6214 26.4143L54.7678 26.4577L54.9141 26.4945L55.0671 26.5279L55.2235 26.5613L55.3798 26.5914L55.5394 26.6181L55.7024 26.6382L55.8654 26.6582L56.0317 26.6749L56.2047 26.6849L56.3809 26.6916L56.5539 26.6983L56.7335 26.7016H56.8266L56.9198 26.6983H57.0096L57.0994 26.695L57.1892 26.6916L57.2757 26.6883L57.3622 26.6849L57.4453 26.6816L57.5285 26.6783L57.6116 26.6716L57.6948 26.6649L57.7746 26.6582L57.8577 26.6515L57.9376 26.6382L58.0107 26.6281L58.0906 26.6214L58.1671 26.6047L58.2402 26.5947L58.3167 26.578L58.3899 26.568L58.4598 26.5546L58.5296 26.5413L58.5961 26.5245L58.666 26.5078L58.7325 26.4911L58.7957 26.4744L58.8589 26.4577L58.9254 26.4377L58.9886 26.4176L59.0518 26.3942L59.0784 26.3842V22.3077H55.2933V19.1968H63.1197V29.0006L62.9068 29.0574L62.8004 29.0874L62.6906 29.1175L62.5842 29.1442L62.4777 29.1743L62.368 29.201L62.2615 29.2278L62.1518 29.2578L62.0453 29.2812L61.9389 29.308L61.8324 29.3347L61.726 29.3614L61.6196 29.3848L61.5131 29.4115L61.41 29.4349L61.3036 29.4583L61.1972 29.4851L61.0941 29.5051L60.9909 29.5285L60.8878 29.5485L60.7814 29.5686L60.675 29.592L60.5752 29.6087L60.4721 29.6287L60.3723 29.6521L60.2659 29.6688L60.1661 29.6855L60.063 29.7023L59.9598 29.719L59.8567 29.739L59.757 29.7524L59.6572 29.7691L59.5574 29.7824L59.4576 29.7992L59.3578 29.8092L59.258 29.8259L59.1549 29.8359L59.0585 29.8526L58.9587 29.8626L58.8556 29.876L58.7591 29.886L58.6593 29.8961L58.5595 29.9094L58.4598 29.9194L58.36 29.9328L58.2602 29.9395L58.1604 29.9495L58.064 29.9562L57.9642 29.9662L57.8644 29.9729L57.7646 29.9796L57.6648 29.9863L57.5684 29.993L57.4686 29.9963L57.3688 29.9996L57.2723 30.003L57.1726 30.0063L57.0761 30.013L56.9796 30.0163H56.8832L56.7834 30.023H56.6869H56.5905H56.4907H56.2047L55.9153 30.0097L55.6326 29.9963L55.3565 29.9796L55.0838 29.9562L54.811 29.9295L54.5449 29.8961L54.2822 29.8593L54.0227 29.8159L53.7666 29.7691L53.5138 29.7089L53.2677 29.6521L53.0282 29.5853L52.7887 29.5185L52.5526 29.4316L52.3198 29.3514L52.0936 29.2679L51.8674 29.1776L51.6446 29.0807L51.435 28.9805L51.2221 28.8736L51.0159 28.7633L50.8097 28.6464L50.6101 28.5261L50.4106 28.3958L50.221 28.2621L50.0281 28.1284L49.8451 27.9848L49.6655 27.8377L49.4892 27.684L49.3163 27.5236L49.15 27.3632L48.9903 27.2029L48.8406 27.0391L48.6943 26.8721L48.5513 26.705L48.4149 26.5312L48.2818 26.3541L48.1521 26.1737L48.0324 25.9933L47.9126 25.8028L47.7996 25.6123L47.6964 25.4252L47.5933 25.2281L47.4969 25.0309L47.4038 24.8271L47.3139 24.6233L47.2308 24.4128L47.1543 24.1989L47.0811 23.9851L47.0146 23.7645L46.9547 23.5473L46.8949 23.3201L46.8416 23.0929L46.7951 22.8623L46.7485 22.6284L46.7152 22.3945L46.682 22.1506L46.6554 21.91L46.6321 21.6628L46.6155 21.4155L46.6022 21.1582L46.5988 20.9043L46.5955 20.6436L46.5988 20.3596L46.6055 20.0756L46.6221 19.7982L46.6421 19.5209L46.6654 19.2502L46.7019 18.9863L46.7419 18.7223L46.7884 18.4617L46.8383 18.2077L46.8915 17.9571L46.958 17.7098L47.0246 17.4693L47.1011 17.232L47.1809 16.9981L47.2707 16.7676L47.3638 16.5403L47.4603 16.3198L47.5634 16.106L47.6765 15.8888L47.7929 15.6783L47.916 15.4744L48.049 15.2706L48.1821 15.0768L48.3251 14.883L48.4714 14.6959L48.6211 14.5121L48.7808 14.3317L48.9471 14.1579L49.1167 13.9875L49.2963 13.8204L49.4759 13.66L49.6655 13.503L49.8385 13.366L50.0148 13.2357L50.1977 13.1054L50.3806 12.9817L50.5702 12.8614L50.7565 12.7445L50.9527 12.6342L51.1523 12.5273L51.3552 12.4237L51.5581 12.3268L51.7676 12.2332L51.9838 12.1464L52.2 12.0628L52.4195 11.9826L52.6424 11.9058L52.8686 11.8356L53.0981 11.7688L53.3309 11.7086L53.5704 11.6485L53.8132 11.595L54.0593 11.5449L54.3054 11.4981L54.5549 11.458L54.811 11.4213L55.0705 11.3879L55.3365 11.3611L55.5993 11.3377L55.8687 11.3177L56.1381 11.301L56.4142 11.291L56.6969 11.2809L56.9796 11.2776H57.1659L57.3555 11.2843L57.5451 11.2876L57.7313 11.291L57.9143 11.2976L58.0972 11.3043L58.2802 11.3143L58.4631 11.3244L58.6394 11.3411L58.819 11.3544L58.9953 11.3678L59.1749 11.3879L59.3512 11.4046L59.5241 11.428L59.6971 11.4513L59.87 11.4714L60.0363 11.4948L60.206 11.5215L60.3756 11.5516L60.5419 11.5783L60.7082 11.6117L60.8745 11.6451L61.0342 11.6786L61.2005 11.7153L61.3601 11.7521L61.5198 11.7922L61.6795 11.8323L61.8358 11.8757L61.9921 11.9191L62.1484 11.9626L62.3014 12.0094L62.5575 12.0896L62.328 15.6215L62.052 15.5078ZM69.1366 11.4914H80.482V14.9598H73.1845V18.7557H79.8201V21.9936H73.1845V26.3307H80.482V29.8025H69.1366V11.4914ZM85.9634 11.4914H91.059L97.5084 22.9325L98.2202 24.7035V11.4914H102.261V29.8025H97.1625L90.6599 17.927L90.0047 16.5002V29.8025H85.9601V11.4914H85.9634ZM106.812 11.4914H121.543V14.9598H116.198V29.8025H112.157V14.9598H106.812V11.4914Z" fill="white"/>
<path fill-rule="evenodd" clip-rule="evenodd" d="M87.2574 9.51657H86.0566V4.55789H87.2574V9.51657ZM90.7897 4.5512H92.323L97.4552 8.5108V4.5512H98.6526V9.51992H97.0761L91.9871 5.58705V9.51992H90.7897V4.5512ZM106.279 9.5834H106.16H106.04H105.927L105.817 9.58006L105.704 9.57672L105.598 9.57338L105.488 9.57004H105.388L105.282 9.5667L105.182 9.56335L105.085 9.55667L104.992 9.55333L104.896 9.54665L104.806 9.54331L104.716 9.53662L104.63 9.52994L104.547 9.5266L104.463 9.51992L104.384 9.51323L104.307 9.50321L104.231 9.49318L104.157 9.48984L104.084 9.47648L104.018 9.46645L103.951 9.45643L103.888 9.44975L103.825 9.43972H103.765L103.708 9.42636L103.652 9.41299L103.599 9.40297L103.545 9.39294L103.449 9.36287L103.352 9.33614L103.259 9.30606L103.173 9.26931L103.09 9.22587L103.01 9.18911L102.937 9.14233L102.867 9.09221L102.8 9.04209L102.74 8.98863L102.681 8.93182L102.627 8.87168L102.581 8.80485L102.538 8.73802L102.501 8.66451L102.471 8.59434L102.458 8.56427L102.448 8.53419L102.444 8.50746L102.434 8.47405L102.421 8.44063L102.414 8.40722L102.408 8.3738L102.398 8.33705L102.391 8.30029L102.385 8.2602L102.381 8.2201L102.375 8.18L102.371 8.1399L102.365 8.09312L102.361 8.043L102.355 7.99956L102.351 7.95278L102.348 7.89932L102.345 7.84586L102.338 7.79239L102.335 7.73893L102.331 7.68547V7.62866L102.328 7.56852L102.325 7.50837L102.321 7.44823V7.38808V7.32125V7.25108V7.18425V7.11408V7.04391V6.97374V6.90023V6.83006V6.76657V6.69975V6.63292L102.325 6.57277L102.328 6.50928V6.45248L102.331 6.39233V6.33887L102.338 6.28541V6.23194L102.345 6.18182L102.348 6.12836L102.355 6.07824L102.358 6.03146L102.365 5.98468L102.371 5.94124L102.375 5.90114L102.385 5.85436L102.388 5.81761L102.395 5.78085L102.401 5.7441L102.411 5.71068L102.418 5.67727L102.428 5.64385L102.431 5.61044L102.444 5.58371L102.454 5.55363L102.464 5.5269L102.478 5.50017L102.514 5.42666L102.548 5.35315L102.591 5.28632L102.641 5.21949L102.694 5.156L102.754 5.09586L102.81 5.04239L102.88 4.98893L102.95 4.93881L103.026 4.89203L103.106 4.84859L103.189 4.81184L103.279 4.77508L103.369 4.74501L103.469 4.71493L103.565 4.6882L103.619 4.67484L103.672 4.66147L103.728 4.64811L103.788 4.63808L103.851 4.62806L103.911 4.61803L103.974 4.60801L104.041 4.59798L104.111 4.58796L104.181 4.58128L104.257 4.57125L104.334 4.56457L104.413 4.55789L104.49 4.5512L104.573 4.54786L104.656 4.54118L104.743 4.5345L104.833 4.53116L104.922 4.52781L105.016 4.52113L105.112 4.51445L105.205 4.51111L105.305 4.50776L105.408 4.50442L105.511 4.49774L105.618 4.4944L105.727 4.49106H105.837L105.95 4.48772L106.063 4.48438H106.18H106.299H106.419H106.536L106.649 4.48772L106.765 4.49106H106.875L106.985 4.4944L107.088 4.49774L107.194 4.50108L107.294 4.50442L107.394 4.50776L107.49 4.51111L107.587 4.51779L107.683 4.52447L107.773 4.52781L107.859 4.5345L107.946 4.54118L108.029 4.54786L108.112 4.5512L108.189 4.55789L108.265 4.56123L108.342 4.57125L108.415 4.57794L108.485 4.58796L108.554 4.59464L108.621 4.60467L108.684 4.61469L108.741 4.62472L108.804 4.63808L108.861 4.64811L108.917 4.66147L108.97 4.6715L109.027 4.68486L109.123 4.70825L109.216 4.73832L109.306 4.77174L109.393 4.80515L109.479 4.84525L109.556 4.88535L109.632 4.93213L109.702 4.98225L109.769 5.03571L109.832 5.08917L109.885 5.14932L109.938 5.21281L109.985 5.27964L110.031 5.34646L110.071 5.41998L110.101 5.49349L110.114 5.52022L110.121 5.54695L110.131 5.57702L110.141 5.61044L110.148 5.64385L110.158 5.67727L110.161 5.71068L110.171 5.7441L110.178 5.78419L110.188 5.82095L110.194 5.8577L110.198 5.90114L110.204 5.94792L110.208 5.98802L110.211 6.0348L110.218 6.08158L110.221 6.1317L110.228 6.18516V6.23529L110.234 6.28875L110.238 6.34555L110.241 6.40236L110.247 6.45916V6.51931V6.57945L110.251 6.64294V6.70309L110.254 6.76992L110.257 6.83674V6.90691V6.97708L110.261 7.04725V7.11742L110.257 7.1876V7.25777L110.254 7.32459V7.39142L110.251 7.45491L110.247 7.51506V7.57854V7.63869L110.244 7.69549L110.241 7.7523L110.238 7.80576L110.228 7.85922V7.91269L110.224 7.96281L110.218 8.00959L110.214 8.05971L110.208 8.10983L110.201 8.15327L110.198 8.19337L110.191 8.23681L110.188 8.2769L110.184 8.31366L110.178 8.35041L110.171 8.38717L110.161 8.41724L110.154 8.45066L110.148 8.48073L110.138 8.51414L110.131 8.54088L110.121 8.57095L110.094 8.58766L110.065 8.65783L110.031 8.73468L109.985 8.80485L109.941 8.86834L109.885 8.93182L109.832 8.98863L109.765 9.04543L109.699 9.09555L109.626 9.14568L109.552 9.18911L109.473 9.22921L109.393 9.26931L109.306 9.30272L109.213 9.33614L109.12 9.36287L109.02 9.39294L108.97 9.40297L108.914 9.41299L108.861 9.42636L108.801 9.43972L108.741 9.44975L108.678 9.45977L108.611 9.46645L108.545 9.47648L108.475 9.4865L108.405 9.49987L108.332 9.50321L108.255 9.51323L108.179 9.52326L108.099 9.52994L108.019 9.53662L107.936 9.53996L107.849 9.54665L107.76 9.55333L107.67 9.55667L107.573 9.56335L107.48 9.5667L107.38 9.57338L107.281 9.57672L107.181 9.58006H107.078L106.971 9.5834L106.858 9.58674L106.745 9.59009L106.629 9.59343H106.516H106.399H106.279V9.5834ZM106.279 8.67787H106.412L106.542 8.67453L106.665 8.67119H106.785H106.905L107.018 8.66451L107.128 8.66117L107.237 8.65783L107.337 8.65448L107.44 8.65114L107.537 8.64446L107.63 8.64112L107.72 8.63444L107.803 8.62775L107.889 8.62107L107.969 8.61439L108.042 8.60436L108.119 8.59768L108.189 8.591L108.252 8.58097L108.312 8.57429L108.368 8.56092L108.421 8.5509L108.471 8.53753L108.518 8.53085L108.561 8.51749L108.598 8.50746L108.631 8.49744L108.664 8.48407L108.691 8.47405L108.714 8.46402L108.731 8.45066L108.744 8.44397L108.757 8.43061L108.774 8.42058L108.787 8.40388L108.804 8.38383L108.824 8.36712L108.837 8.34707L108.854 8.32034L108.867 8.29361L108.877 8.26354L108.894 8.23346L108.907 8.20005L108.92 8.15995L108.934 8.1232L108.94 8.0831L108.954 8.03966L108.967 7.99288L108.977 7.9461L108.987 7.89598L108.997 7.84252L109.004 7.78905L109.014 7.73225L109.017 7.6721L109.023 7.61196L109.027 7.55181L109.033 7.48164L109.04 7.41481L109.043 7.34464L109.047 7.27447V7.20096L109.05 7.12077V7.04057V6.96372L109.047 6.89021V6.81335L109.043 6.74318V6.67301L109.037 6.60284L109.03 6.53936L109.027 6.47587L109.02 6.40904L109.017 6.35224L109.01 6.29543L109 6.24197L108.99 6.18851L108.98 6.13839L108.97 6.08826L108.957 6.04148L108.947 5.99804L108.937 5.95795L108.924 5.92119L108.91 5.88444L108.897 5.84434L108.88 5.81761L108.87 5.78753L108.854 5.75746L108.841 5.73073L108.827 5.70734L108.811 5.69063L108.794 5.67393L108.781 5.65722L108.764 5.64385L108.751 5.63049L108.734 5.62046L108.717 5.61378L108.698 5.60041L108.671 5.59039L108.644 5.58037L108.611 5.567L108.571 5.55363L108.528 5.54361L108.481 5.53024L108.435 5.52022L108.382 5.5102L108.322 5.50017L108.255 5.48681L108.192 5.48012L108.125 5.46676L108.052 5.46342L107.979 5.45339L107.903 5.44671L107.819 5.44003L107.733 5.43334L107.643 5.42666L107.537 5.43L107.44 5.42666L107.34 5.42332L107.237 5.41998L107.131 5.41664L107.018 5.41329L106.905 5.40661H106.785L106.665 5.39993H106.539H106.412H106.279H106.146H106.017H105.894L105.774 5.40661H105.654L105.538 5.41329L105.425 5.41664L105.318 5.41998L105.215 5.42332L105.119 5.42666L105.022 5.43L104.929 5.43334L104.839 5.44003L104.753 5.44671L104.67 5.45339L104.59 5.46007L104.513 5.4701L104.44 5.47678L104.374 5.49015L104.307 5.49683L104.244 5.5102L104.187 5.52022L104.134 5.53024L104.084 5.54027L104.038 5.55363L103.994 5.56366L103.954 5.57702L103.921 5.59039L103.891 5.60041L103.865 5.61044L103.845 5.6238L103.828 5.63049L103.811 5.64051L103.798 5.65388L103.782 5.66724L103.768 5.68395L103.755 5.70066L103.738 5.71736L103.725 5.74075L103.712 5.76749L103.698 5.79756L103.685 5.82763L103.672 5.85436L103.658 5.89446L103.645 5.93122L103.632 5.96797L103.619 6.00807L103.605 6.05151L103.595 6.09829L103.589 6.14841L103.579 6.19853L103.569 6.25199L103.562 6.30546L103.555 6.36226L103.545 6.41906L103.539 6.48255L103.532 6.54604L103.529 6.60953L103.522 6.6797L103.519 6.74987L103.515 6.82004L103.512 6.89689L103.509 6.9704V7.04725V7.12745L103.512 7.20096L103.515 7.27447L103.519 7.34464L103.522 7.41481L103.525 7.48164L103.529 7.54847L103.535 7.60862L103.542 7.66876L103.552 7.72557L103.559 7.78237L103.565 7.83917L103.575 7.89264L103.585 7.94276L103.595 7.98954L103.605 8.03632L103.619 8.0831L103.632 8.1232L103.645 8.15995L103.658 8.19671L103.672 8.23012L103.685 8.2602L103.698 8.29027L103.712 8.32034L103.728 8.34039L103.742 8.36378L103.758 8.38383L103.778 8.40054L103.788 8.4139L103.805 8.43061L103.818 8.44063L103.835 8.45066L103.851 8.46068L103.871 8.47405L103.898 8.48407L103.928 8.4941L103.961 8.50746L104.001 8.51749L104.041 8.52751L104.088 8.53753L104.137 8.55424L104.191 8.56427L104.247 8.57429L104.307 8.58431L104.374 8.59434L104.44 8.60102L104.513 8.6077L104.59 8.61773L104.67 8.62441L104.753 8.63109L104.839 8.63778L104.926 8.64446L105.022 8.6478L105.115 8.65448L105.215 8.65783L105.322 8.66117L105.428 8.66451L105.538 8.66785L105.654 8.67453H105.774H105.894L106.017 8.67787L106.146 8.68122H106.279V8.67787ZM117.239 6.46585H117.266L119.863 4.55789H121.653L118.293 6.97374L121.703 9.51992H119.98L117.266 7.47162H117.239L114.522 9.51992H112.825L116.231 6.97374L112.875 4.55789H114.631L117.239 6.46585Z" fill="white"/>
</g>
<defs>
<clipPath id="clip0_401_196">
<rect width="126" height="33" fill="white" transform="translate(0 0.751953)"/>
</clipPath>
</defs>
</svg>
