<svg width="115" height="30" viewBox="0 0 115 30" fill="none" xmlns="http://www.w3.org/2000/svg">
<g clip-path="url(#clip0_119_487)">
<path fill-rule="evenodd" clip-rule="evenodd" d="M12.3524 2.97388C14.6748 2.97388 16.6905 3.77582 18.3905 5.37667C20.0905 6.98056 20.9406 8.8791 20.9406 11.0662C20.9406 13.2503 20.0905 15.1488 18.3905 16.7527C17.7075 17.3967 16.9789 17.9101 16.1987 18.2928L21.7025 29.997H15.1241L10.2547 19.1616H5.77398V29.997H0V2.97388C4.1195 2.97388 8.23597 2.97388 12.3524 2.97388ZM5.77398 8.36877V13.8062H12.3524C13.0082 13.8062 13.6335 13.5176 14.2285 12.9344C14.8235 12.3512 15.121 11.7315 15.121 11.0662C15.121 10.401 14.8296 9.78736 14.2498 9.21932C13.6669 8.65128 13.0324 8.36877 12.3494 8.36877H5.77398Z" fill="white"/>
<path d="M24.3374 0H114.514H115V0.489064V29.5109V30H114.514H24.3374H23.8486V29.5109V0.489064V0H24.3374ZM114.019 0.978129H24.8292V29.0188H114.019V0.978129Z" fill="white"/>
<path fill-rule="evenodd" clip-rule="evenodd" d="M27.771 9.76301H38.1259V12.9161H31.4594V16.3669H37.5218V19.3104H31.4594V23.2533H38.1259V26.4094H27.771V9.76301ZM56.6348 13.4143L56.562 13.387L56.4891 13.3566L56.4193 13.3262L56.3464 13.2989L56.2736 13.2715L56.2007 13.2411L56.1279 13.2138L56.055 13.1865L55.9852 13.1622L55.9123 13.1348L55.8395 13.1136L55.7697 13.0862L55.6968 13.0619L55.627 13.0376L55.5541 13.0133L55.4782 12.9921L55.4054 12.9678L55.3325 12.9495L55.2596 12.9283L55.1838 12.907L55.1109 12.8888L55.038 12.8675L54.9621 12.8493L54.8923 12.8311L54.8164 12.8159L54.7436 12.7976L54.6707 12.7794L54.5948 12.7673L54.525 12.7521L54.4491 12.7369L54.3762 12.7247L54.3003 12.7126L54.2245 12.6974L54.1486 12.6852L54.0757 12.6731L53.9998 12.6609L53.9239 12.6458L53.8511 12.6366L53.7752 12.6245L53.6962 12.6154L53.6234 12.6063L53.5505 12.5972L53.4746 12.588L53.3987 12.5789L53.3228 12.5698L53.2469 12.5607L53.168 12.5577L53.0921 12.5486L53.0223 12.5425L52.9403 12.5364L52.8644 12.5303L52.7885 12.5273L52.7096 12.5212L52.6337 12.5182L52.5578 12.5151L52.4789 12.5091L52.4 12.506H52.3241L52.2482 12.503L52.1723 12.5L52.0934 12.4969H52.0175H51.9385H51.7716L51.6076 12.503L51.4468 12.5121L51.2889 12.5212L51.1341 12.5364L50.9792 12.5546L50.8275 12.5759L50.6787 12.6002L50.533 12.6245L50.3903 12.6549L50.2476 12.6883L50.108 12.7217L49.9714 12.7642L49.8317 12.8068L49.6982 12.8523L49.5707 12.9009L49.4432 12.9526L49.3157 13.0072L49.1942 13.0619L49.0698 13.1227L48.9514 13.1834L48.836 13.2533L48.7207 13.3232L48.6083 13.3961L48.499 13.469L48.3928 13.551L48.2865 13.633L48.1833 13.7211L48.0862 13.8092L47.989 13.9003L47.8919 13.9975L47.7978 14.0947L47.7158 14.1889L47.6308 14.2861L47.5519 14.3833L47.473 14.4835L47.4001 14.5868L47.3303 14.6901L47.2605 14.7964L47.1937 14.9027L47.1299 15.0121L47.0662 15.1215L47.0085 15.2399L46.9539 15.3523L46.8992 15.4678L46.8476 15.5893L46.799 15.7108L46.7505 15.8353L46.711 15.9599L46.6715 16.0874L46.6321 16.2181L46.5987 16.3487L46.5683 16.4793L46.541 16.616L46.5137 16.7527L46.4924 16.8924L46.4712 17.0322L46.453 17.178L46.4347 17.3207L46.4256 17.4665L46.4135 17.6184L46.4074 17.7673L46.4014 17.9222V18.0771V18.232L46.4044 18.3839L46.4135 18.5358L46.4256 18.6846L46.4347 18.8305L46.453 18.9732L46.4712 19.113L46.4894 19.2527L46.5106 19.3894L46.5349 19.5261L46.5592 19.6597L46.5896 19.7873L46.623 19.921L46.6564 20.0486L46.6989 20.1761L46.7383 20.2976L46.7839 20.4192L46.8324 20.5407L46.878 20.6591L46.9326 20.7776L46.9872 20.89L47.0419 21.0024L47.0996 21.1087L47.1603 21.2181L47.221 21.3213L47.2878 21.4246L47.3606 21.5279L47.4305 21.6312L47.5064 21.7253L47.5823 21.8226L47.6642 21.9167L47.7462 22.0109L47.8373 22.1081L47.9314 22.2023L48.0255 22.2904L48.1226 22.3784L48.2228 22.4635L48.323 22.5455L48.4292 22.6245L48.5324 22.6974L48.6448 22.7733L48.754 22.8402L48.8694 22.907L48.9817 22.9708L49.1001 23.0285L49.2185 23.0862L49.343 23.1409L49.4674 23.1895L49.5919 23.2411L49.7194 23.2897L49.853 23.3292L49.9866 23.3687L50.1201 23.4021L50.2598 23.4325L50.4025 23.4629L50.5451 23.4902L50.6909 23.5145L50.8396 23.5328L50.9884 23.551L51.1401 23.5662L51.298 23.5753L51.4589 23.5814L51.6168 23.5874L51.7807 23.5905H51.8657L51.9507 23.5874H52.0326L52.1146 23.5844L52.1966 23.5814L52.2755 23.5783L52.3544 23.5753L52.4303 23.5722L52.5062 23.5692L52.5821 23.5631L52.658 23.5571L52.7309 23.551L52.8068 23.5449L52.8796 23.5328L52.9464 23.5236L53.0193 23.5176L53.0891 23.5024L53.1559 23.4933L53.2257 23.4781L53.2925 23.469L53.3562 23.4568L53.42 23.4447L53.4807 23.4295L53.5445 23.4143L53.6052 23.3991L53.6628 23.3839L53.7205 23.3687L53.7812 23.3505L53.8389 23.3323L53.8966 23.311L53.9209 23.3019V19.5959H50.4662V16.7679H57.6093V25.6804L57.415 25.732L57.3179 25.7594L57.2177 25.7867L57.1206 25.811L57.0234 25.8383L56.9232 25.8626L56.8261 25.887L56.7259 25.9143L56.6288 25.9356L56.5316 25.9599L56.4345 25.9842L56.3373 26.0085L56.2402 26.0297L56.143 26.054L56.0489 26.0753L55.9518 26.0965L55.8547 26.1208L55.7605 26.1391L55.6664 26.1603L55.5723 26.1786L55.4752 26.1968L55.378 26.2181L55.287 26.2332L55.1929 26.2515L55.1018 26.2727L55.0046 26.2879L54.9136 26.3031L54.8195 26.3183L54.7254 26.3335L54.6312 26.3517L54.5402 26.3639L54.4491 26.3791L54.358 26.3912L54.267 26.4064L54.1759 26.4155L54.0848 26.4307L53.9907 26.4398L53.9027 26.455L53.8116 26.4641L53.7175 26.4763L53.6295 26.4854L53.5384 26.4945L53.4473 26.5066L53.3562 26.5157L53.2652 26.5279L53.1741 26.534L53.083 26.5431L52.995 26.5492L52.9039 26.5583L52.8128 26.5644L52.7218 26.5704L52.6307 26.5765L52.5427 26.5826L52.4516 26.5856L52.3605 26.5887L52.2725 26.5917L52.1814 26.5947L52.0934 26.6008L52.0053 26.6038H51.9173L51.8262 26.6099H51.7382H51.6501H51.5591H51.298L51.0339 26.5978L50.7759 26.5856L50.5239 26.5704L50.275 26.5492L50.026 26.5249L49.7832 26.4945L49.5433 26.4611L49.3066 26.4216L49.0728 26.3791L48.8421 26.3244L48.6174 26.2727L48.3989 26.212L48.1803 26.1512L47.9648 26.0722L47.7523 25.9993L47.5458 25.9234L47.3394 25.8414L47.136 25.7533L46.9447 25.6622L46.7505 25.565L46.5622 25.4647L46.374 25.3584L46.1919 25.249L46.0097 25.1306L45.8367 25.0091L45.6606 24.8876L45.4937 24.7569L45.3297 24.6233L45.1688 24.4835L45.011 24.3377L44.8592 24.1919L44.7135 24.0461L44.5769 23.8973L44.4433 23.7454L44.3128 23.5935L44.1883 23.4356L44.0669 23.2746L43.9485 23.1105L43.8392 22.9465L43.7299 22.7733L43.6267 22.6002L43.5326 22.4301L43.4385 22.2509L43.3504 22.0716L43.2654 21.8863L43.1835 21.701L43.1076 21.5097L43.0377 21.3153L42.971 21.1209L42.9102 20.9204L42.8556 20.7229L42.801 20.5164L42.7524 20.3098L42.7099 20.1002L42.6674 19.8876L42.637 19.6749L42.6067 19.4532L42.5824 19.2345L42.5611 19.0097L42.546 18.7849L42.5338 18.551L42.5308 18.3201L42.5277 18.0832L42.5308 17.825L42.5368 17.5668L42.552 17.3147L42.5702 17.0625L42.5915 16.8165L42.6249 16.5765L42.6613 16.3365L42.7038 16.0996L42.7494 15.8687L42.7979 15.6409L42.8586 15.4161L42.9194 15.1974L42.9892 14.9817L43.062 14.7691L43.144 14.5595L43.229 14.3529L43.317 14.1524L43.4111 13.958L43.5144 13.7606L43.6206 13.5692L43.7329 13.3839L43.8544 13.1986L43.9758 13.0224L44.1063 12.8462L44.2399 12.6761L44.3765 12.5091L44.5222 12.345L44.674 12.1871L44.8288 12.0322L44.9928 11.8803L45.1567 11.7345L45.3297 11.5917L45.4876 11.4671L45.6485 11.3487L45.8154 11.2302L45.9824 11.1178L46.1555 11.0085L46.3255 10.9021L46.5046 10.8019L46.6867 10.7047L46.8719 10.6105L47.0571 10.5224L47.2483 10.4374L47.4456 10.3584L47.643 10.2825L47.8433 10.2096L48.0467 10.1397L48.2531 10.0759L48.4626 10.0151L48.6751 9.96046L48.8937 9.90578L49.1153 9.85718L49.3399 9.81162L49.5646 9.76909L49.7923 9.73264L50.026 9.69922L50.2628 9.66885L50.5057 9.64455L50.7455 9.62328L50.9914 9.60506L51.2373 9.58987L51.4893 9.58075L51.7473 9.57164L52.0053 9.5686H52.1753L52.3484 9.57468L52.5214 9.57772L52.6914 9.58075L52.8584 9.58683L53.0253 9.5929L53.1923 9.60202L53.3593 9.61113L53.5202 9.62632L53.6841 9.63847L53.845 9.65062L54.0089 9.66885L54.1698 9.68403L54.3277 9.7053L54.4855 9.72656L54.6434 9.74479L54.7952 9.76605L54.95 9.79035L55.1048 9.81769L55.2566 9.84199L55.4084 9.87237L55.5602 9.90275L55.7059 9.93312L55.8577 9.96654L56.0034 9.99995L56.1491 10.0364L56.2948 10.0729L56.4375 10.1123L56.5802 10.1518L56.7229 10.1913L56.8625 10.2339L57.0963 10.3068L56.8868 13.5176L56.6348 13.4143ZM63.101 9.76301H73.4559V12.9161H66.7955V16.3669H72.8518V19.3104H66.7955V23.2533H73.4559V26.4094H63.101V9.76301ZM78.4588 9.76301H83.1095L88.9958 20.164L89.6455 21.7739V9.76301H93.3339V26.4094H88.6801L82.7453 15.6136L82.1472 14.3165V26.4094H78.4558V9.76301H78.4588ZM97.4868 9.76301H110.932V12.9161H106.054V26.4094H102.365V12.9161H97.4868V9.76301Z" fill="white"/>
<path fill-rule="evenodd" clip-rule="evenodd" d="M79.6398 7.96779H78.5439V3.4599H79.6398V7.96779ZM82.8638 3.45382H84.2633L88.9474 7.05346V3.45382H90.0403V7.97083H88.6014L83.9567 4.3955V7.97083H82.8638V3.45382ZM97.0013 8.02855H96.892H96.7827H96.6795L96.5793 8.02551L96.4761 8.02247L96.3789 8.01943L96.2787 8.0164H96.1877L96.0905 8.01336L95.9995 8.01032L95.9114 8.00425L95.8264 8.00121L95.7384 7.99513L95.6564 7.99209L95.5745 7.98602L95.4955 7.97994L95.4196 7.97691L95.3437 7.97083L95.2709 7.96476L95.2011 7.95564L95.1312 7.94653L95.0644 7.94349L94.9977 7.93134L94.937 7.92223L94.8762 7.91312L94.8186 7.90704L94.7609 7.89793H94.7062L94.6546 7.88578L94.603 7.87363L94.5544 7.86451L94.5059 7.8554L94.4178 7.82806L94.3298 7.80376L94.2448 7.77642L94.1659 7.74301L94.09 7.70352L94.0171 7.6701L93.9503 7.62757L93.8866 7.58201L93.8259 7.53644L93.7712 7.48784L93.7166 7.4362L93.668 7.38152L93.6255 7.32077L93.586 7.26002L93.5527 7.19319L93.5253 7.1294L93.5132 7.10206L93.5041 7.07472L93.501 7.05042L93.4919 7.02004L93.4798 6.98966L93.4737 6.95929L93.4677 6.92891L93.4585 6.8955L93.4525 6.86208L93.4464 6.82563L93.4434 6.78918L93.4373 6.75273L93.4343 6.71627L93.4282 6.67375L93.4252 6.62818L93.4191 6.58869L93.416 6.54616L93.413 6.49756L93.41 6.44896L93.4039 6.40036L93.4009 6.35175L93.3978 6.30315V6.25151L93.3948 6.19683L93.3918 6.14216L93.3887 6.08748V6.0328V5.97205V5.90826V5.8475V5.78371V5.71992V5.65613V5.5893V5.52551V5.46779V5.40704V5.34629L93.3918 5.29161L93.3948 5.23389V5.18225L93.3978 5.12757V5.07897L93.4039 5.03037V4.98177L93.41 4.9362L93.413 4.8876L93.4191 4.84203L93.4221 4.79951L93.4282 4.75698L93.4343 4.71749L93.4373 4.68104L93.4464 4.63851L93.4494 4.6051L93.4555 4.57168L93.4616 4.53827L93.4707 4.50789L93.4768 4.47751L93.4859 4.44714L93.4889 4.41676L93.501 4.39246L93.5102 4.36512L93.5193 4.34082L93.5314 4.31652L93.5648 4.24969L93.5952 4.18286L93.6346 4.12211L93.6802 4.06135L93.7287 4.00364L93.7834 3.94896L93.835 3.90036L93.8987 3.85175L93.9625 3.80619L94.0323 3.76366L94.1052 3.72417L94.181 3.69076L94.263 3.65734L94.345 3.63L94.436 3.60267L94.5241 3.57836L94.5727 3.56621L94.6212 3.55406L94.6728 3.54191L94.7275 3.5328L94.7852 3.52369L94.8398 3.51457L94.8975 3.50546L94.9582 3.49635L95.022 3.48723L95.0857 3.48116L95.1555 3.47205L95.2253 3.46597L95.2982 3.4599L95.368 3.45382L95.4439 3.45078L95.5198 3.44471L95.5987 3.43863L95.6807 3.43559L95.7627 3.43256L95.8477 3.42648L95.9357 3.42041L96.0207 3.41737L96.1118 3.41433L96.2059 3.41129L96.3 3.40522L96.3971 3.40218L96.4973 3.39914H96.5975L96.7007 3.3961L96.8039 3.39307H96.9102H97.0195H97.1288H97.235L97.3382 3.3961L97.4445 3.39914H97.5447L97.6448 3.40218L97.7389 3.40522L97.8361 3.40825L97.9272 3.41129L98.0182 3.41433L98.1063 3.41737L98.1943 3.42344L98.2823 3.42952L98.3643 3.43256L98.4432 3.43863L98.5222 3.44471L98.5981 3.45078L98.674 3.45382L98.7438 3.4599L98.8136 3.46293L98.8834 3.47205L98.9502 3.47812L99.014 3.48723L99.0777 3.49331L99.1384 3.50242L99.1961 3.51154L99.2477 3.52065L99.3054 3.5328L99.357 3.54191L99.4086 3.55406L99.4572 3.56318L99.5088 3.57533L99.5968 3.59659L99.6818 3.62393L99.7638 3.65431L99.8427 3.68468L99.9216 3.72113L99.9915 3.75759L100.061 3.80011L100.125 3.84568L100.186 3.89428L100.243 3.94288L100.292 3.99756L100.341 4.05528L100.383 4.11603L100.426 4.17678L100.462 4.24361L100.489 4.31044L100.501 4.33474L100.508 4.35904L100.517 4.38638L100.526 4.41676L100.532 4.44714L100.541 4.47751L100.544 4.50789L100.553 4.53827L100.559 4.57472L100.568 4.60813L100.574 4.64155L100.577 4.68104L100.583 4.72356L100.586 4.76002L100.59 4.80254L100.596 4.84507L100.599 4.89064L100.605 4.93924V4.9848L100.611 5.03341L100.614 5.08505L100.617 5.13669L100.623 5.18833V5.24301V5.29768L100.626 5.3554V5.41008L100.629 5.47083L100.632 5.53158V5.59538V5.65917L100.635 5.72296V5.78675L100.632 5.85054V5.91433L100.629 5.97508V6.03584L100.626 6.09355L100.623 6.14823V6.20595V6.26062L100.62 6.31226L100.617 6.36391L100.614 6.41251L100.605 6.46111V6.50971L100.602 6.55528L100.596 6.59781L100.593 6.64337L100.586 6.68894L100.58 6.72843L100.577 6.76488L100.571 6.80437L100.568 6.84082L100.565 6.87423L100.559 6.90765L100.553 6.94106L100.544 6.9684L100.538 6.99878L100.532 7.02612L100.523 7.05649L100.517 7.08079L100.508 7.10813L100.483 7.12332L100.456 7.18711L100.426 7.25698L100.383 7.32077L100.344 7.37849L100.292 7.4362L100.243 7.48784L100.183 7.53948L100.122 7.58505L100.055 7.63061L99.9884 7.6701L99.9156 7.70655L99.8427 7.74301L99.7638 7.77338L99.6788 7.80376L99.5938 7.82806L99.5027 7.8554L99.4572 7.86451L99.4056 7.87363L99.357 7.88578L99.3023 7.89793L99.2477 7.90704L99.19 7.91615L99.1293 7.92223L99.0686 7.93134L99.0048 7.94045L98.9411 7.95261L98.8743 7.95564L98.8045 7.96476L98.7347 7.97387L98.6618 7.97994L98.589 7.98602L98.5131 7.98906L98.4341 7.99513L98.3522 8.00121L98.2702 8.00425L98.1822 8.01032L98.0972 8.01336L98.0061 8.01943L97.915 8.02247L97.8239 8.02551H97.7298L97.6327 8.02855L97.5295 8.03158L97.4263 8.03462L97.32 8.03766H97.2168H97.1105H97.0013V8.02855ZM97.0013 7.20534H97.1227L97.2411 7.2023L97.3534 7.19926H97.4627H97.572L97.6752 7.19319L97.7754 7.19015L97.8756 7.18711L97.9666 7.18408L98.0607 7.18104L98.1488 7.17496L98.2338 7.17192L98.3157 7.16585L98.3916 7.15977L98.4706 7.1537L98.5434 7.14762L98.6102 7.13851L98.68 7.13243L98.7438 7.12636L98.8014 7.11725L98.8561 7.11117L98.9077 7.09902L98.9563 7.08991L99.0018 7.07776L99.0443 7.07168L99.0838 7.05953L99.1172 7.05042L99.1475 7.0413L99.1779 7.02915L99.2022 7.02004L99.2234 7.01093L99.2386 6.99878L99.2507 6.9927L99.2629 6.98055L99.2781 6.97144L99.2902 6.95625L99.3054 6.93802L99.3236 6.92284L99.3357 6.90461L99.3509 6.88031L99.3631 6.85601L99.3722 6.82867L99.3874 6.80133L99.3995 6.77095L99.4116 6.7345L99.4238 6.70109L99.4298 6.66463L99.442 6.62514L99.4541 6.58262L99.4632 6.54009L99.4724 6.49452L99.4815 6.44592L99.4875 6.39732L99.4966 6.34568L99.4997 6.291L99.5057 6.23632L99.5088 6.18165L99.5148 6.11785L99.5209 6.0571L99.524 5.99331L99.527 5.92952V5.86269L99.53 5.78979V5.71688V5.64702L99.527 5.58019V5.51032L99.524 5.44653V5.38274L99.5179 5.31895L99.5118 5.26123L99.5088 5.20352L99.5027 5.14276L99.4997 5.09112L99.4936 5.03948L99.4845 4.99088L99.4754 4.94228L99.4663 4.89671L99.4572 4.85115L99.445 4.80862L99.4359 4.76913L99.4268 4.73268L99.4147 4.69926L99.4025 4.66585L99.3904 4.6294L99.3752 4.6051L99.3661 4.57776L99.3509 4.55042L99.3388 4.52612L99.3266 4.50485L99.3115 4.48966L99.2963 4.47448L99.2841 4.45929L99.269 4.44714L99.2568 4.43499L99.2416 4.42587L99.2264 4.4198L99.2082 4.40765L99.184 4.39853L99.1597 4.38942L99.1293 4.37727L99.0929 4.36512L99.0534 4.35601L99.0109 4.34386L98.9684 4.33474L98.9198 4.32563L98.8652 4.31652L98.8045 4.30437L98.7468 4.29829L98.6861 4.28614L98.6193 4.2831L98.5525 4.27399L98.4827 4.26791L98.4068 4.26184L98.3279 4.25576L98.2459 4.24969L98.1488 4.25273L98.0607 4.24969L97.9697 4.24665L97.8756 4.24361L97.7784 4.24058L97.6752 4.23754L97.572 4.23146H97.4627L97.3534 4.22539H97.238H97.1227H97.0013H96.8798H96.7614H96.6491L96.5398 4.23146H96.4305L96.3243 4.23754L96.2211 4.24058L96.1239 4.24361L96.0298 4.24665L95.9418 4.24969L95.8537 4.25273L95.7687 4.25576L95.6868 4.26184L95.6079 4.26791L95.532 4.27399L95.4591 4.28007L95.3893 4.28918L95.3225 4.29525L95.2618 4.3074L95.2011 4.31348L95.1434 4.32563L95.0918 4.33474L95.0432 4.34386L94.9977 4.35297L94.9552 4.36512L94.9157 4.37423L94.8793 4.38638L94.8489 4.39853L94.8216 4.40765L94.7973 4.41676L94.7791 4.42891L94.7639 4.43499L94.7487 4.4441L94.7366 4.45625L94.7214 4.4684L94.7093 4.48359L94.6971 4.49878L94.682 4.51397L94.6698 4.53523L94.6577 4.55953L94.6455 4.58687L94.6334 4.61421L94.6212 4.63851L94.6091 4.67496L94.5969 4.70838L94.5848 4.74179L94.5727 4.77824L94.5605 4.81773L94.5514 4.86026L94.5453 4.90582L94.5362 4.95139L94.5271 4.99999L94.521 5.0486L94.515 5.10024L94.5059 5.15188L94.4998 5.20959L94.4937 5.26731L94.4907 5.32502L94.4846 5.38881L94.4816 5.45261L94.4786 5.5164L94.4755 5.58626L94.4725 5.65309V5.72296V5.79586L94.4755 5.86269L94.4786 5.92952L94.4816 5.99331L94.4846 6.0571L94.4877 6.11785L94.4907 6.17861L94.4968 6.23329L94.5028 6.28796L94.5119 6.3396L94.518 6.39124L94.5241 6.44288L94.5332 6.49149L94.5423 6.53705L94.5514 6.57958L94.5605 6.62211L94.5727 6.66463L94.5848 6.70109L94.5969 6.7345L94.6091 6.76792L94.6212 6.79829L94.6334 6.82563L94.6455 6.85297L94.6577 6.88031L94.6728 6.89853L94.685 6.9198L94.7002 6.93802L94.7184 6.95321L94.7275 6.96536L94.7427 6.98055L94.7548 6.98966L94.77 6.99878L94.7852 7.00789L94.8034 7.02004L94.8277 7.02915L94.855 7.03827L94.8853 7.05042L94.9218 7.05953L94.9582 7.06864L95.0007 7.07776L95.0462 7.09295L95.0948 7.10206L95.1464 7.11117L95.2011 7.12028L95.2618 7.1294L95.3225 7.13547L95.3893 7.14155L95.4591 7.15066L95.532 7.15674L95.6079 7.16281L95.6868 7.16889L95.7657 7.17496L95.8537 7.178L95.9387 7.18408L96.0298 7.18711L96.127 7.19015L96.2241 7.19319L96.3243 7.19623L96.4305 7.2023H96.5398H96.6491L96.7614 7.20534L96.8798 7.20838H97.0013V7.20534ZM107.004 5.1944H107.028L109.399 3.4599H111.032L107.966 5.65613L111.078 7.97083H109.505L107.028 6.10874H107.004L104.524 7.97083H102.976L106.084 5.65613L103.021 3.4599H104.624L107.004 5.1944Z" fill="white"/>
</g>
<defs>
<clipPath id="clip0_119_487">
<rect width="115" height="30" fill="white"/>
</clipPath>
</defs>
</svg>
