<svg width="20" height="21" viewBox="0 0 20 21" fill="none" xmlns="http://www.w3.org/2000/svg">
<g clip-path="url(#clip0_119_109)">
<path fill-rule="evenodd" clip-rule="evenodd" d="M5.8335 2.54875C5.37326 2.54875 5.00016 2.92184 5.00016 3.38208V16.7154C5.00016 17.1757 5.37326 17.5487 5.8335 17.5487H14.1668C14.6271 17.5487 15.0002 17.1757 15.0002 16.7154V3.38208C15.0002 2.92184 14.6271 2.54875 14.1668 2.54875H5.8335ZM3.3335 3.38208C3.3335 2.00137 4.45278 0.88208 5.8335 0.88208H14.1668C15.5475 0.88208 16.6668 2.00137 16.6668 3.38208V16.7154C16.6668 18.0961 15.5475 19.2154 14.1668 19.2154H5.8335C4.45278 19.2154 3.3335 18.0961 3.3335 16.7154V3.38208Z" fill="white"/>
<path fill-rule="evenodd" clip-rule="evenodd" d="M9.1665 15.0489C9.1665 14.5887 9.5396 14.2156 9.99984 14.2156H10.0082C10.4684 14.2156 10.8415 14.5887 10.8415 15.0489C10.8415 15.5091 10.4684 15.8822 10.0082 15.8822H9.99984C9.5396 15.8822 9.1665 15.5091 9.1665 15.0489Z" fill="white"/>
</g>
<defs>
<clipPath id="clip0_119_109">
<rect width="20" height="20" fill="white" transform="translate(0 0.0488281)"/>
</clipPath>
</defs>
</svg>
