<svg width="20" height="21" viewBox="0 0 20 21" fill="none" xmlns="http://www.w3.org/2000/svg">
<path fill-rule="evenodd" clip-rule="evenodd" d="M9.1665 3.38224C5.94484 3.38224 3.33317 5.99391 3.33317 9.21558C3.33317 12.4372 5.94484 15.0489 9.1665 15.0489C12.3882 15.0489 14.9998 12.4372 14.9998 9.21558C14.9998 5.99391 12.3882 3.38224 9.1665 3.38224ZM1.6665 9.21558C1.6665 5.07344 5.02437 1.71558 9.1665 1.71558C13.3086 1.71558 16.6665 5.07344 16.6665 9.21558C16.6665 13.3577 13.3086 16.7156 9.1665 16.7156C5.02437 16.7156 1.6665 13.3577 1.6665 9.21558Z" fill="black"/>
<path fill-rule="evenodd" clip-rule="evenodd" d="M13.2856 13.3347C13.611 13.0092 14.1387 13.0092 14.4641 13.3347L18.0891 16.9597C18.4145 17.2851 18.4145 17.8127 18.0891 18.1382C17.7637 18.4636 17.236 18.4636 16.9106 18.1382L13.2856 14.5132C12.9601 14.1877 12.9601 13.6601 13.2856 13.3347Z" fill="black"/>
</svg>
