<svg width="21" height="21" viewBox="0 0 21 21" fill="none" xmlns="http://www.w3.org/2000/svg">
<path fill-rule="evenodd" clip-rule="evenodd" d="M4.22039 12.936C5.00179 12.1546 6.0616 11.7156 7.16667 11.7156H13.8333C14.9384 11.7156 15.9982 12.1546 16.7796 12.936C17.561 13.7174 18 14.7772 18 15.8822V17.5489C18 18.0091 17.6269 18.3822 17.1667 18.3822C16.7064 18.3822 16.3333 18.0091 16.3333 17.5489V15.8822C16.3333 15.2192 16.0699 14.5833 15.6011 14.1145C15.1323 13.6456 14.4964 13.3822 13.8333 13.3822H7.16667C6.50363 13.3822 5.86774 13.6456 5.3989 14.1145C4.93006 14.5833 4.66667 15.2192 4.66667 15.8822V17.5489C4.66667 18.0091 4.29357 18.3822 3.83333 18.3822C3.3731 18.3822 3 18.0091 3 17.5489V15.8822C3 14.7772 3.43899 13.7174 4.22039 12.936Z" fill="white"/>
<path fill-rule="evenodd" clip-rule="evenodd" d="M10.5002 3.38224C9.11945 3.38224 8.00016 4.50153 8.00016 5.88224C8.00016 7.26295 9.11945 8.38224 10.5002 8.38224C11.8809 8.38224 13.0002 7.26295 13.0002 5.88224C13.0002 4.50153 11.8809 3.38224 10.5002 3.38224ZM6.3335 5.88224C6.3335 3.58106 8.19898 1.71558 10.5002 1.71558C12.8013 1.71558 14.6668 3.58106 14.6668 5.88224C14.6668 8.18343 12.8013 10.0489 10.5002 10.0489C8.19898 10.0489 6.3335 8.18343 6.3335 5.88224Z" fill="white"/>
</svg>
